<mxfile host="65bd71144e">
    <diagram id="35DaoKz6XRs1qy8zZw1-" name="第1頁">
        <mxGraphModel dx="791" dy="530" grid="1" gridSize="10" guides="1" tooltips="1" connect="1" arrows="1" fold="1" page="1" pageScale="1" pageWidth="827" pageHeight="1169" math="0" shadow="0">
            <root>
                <mxCell id="0"/>
                <mxCell id="1" parent="0"/>
                <mxCell id="2" value="Warden" style="rounded=0;whiteSpace=wrap;html=1;" vertex="1" parent="1">
                    <mxGeometry x="220" y="145" width="220" height="20" as="geometry"/>
                </mxCell>
                <mxCell id="3" value="Web app" style="rounded=0;whiteSpace=wrap;html=1;" vertex="1" parent="1">
                    <mxGeometry x="220" y="305" width="220" height="20" as="geometry"/>
                </mxCell>
                <mxCell id="4" value="Many middlewares" style="rounded=0;whiteSpace=wrap;html=1;" vertex="1" parent="1">
                    <mxGeometry x="220" y="225" width="220" height="20" as="geometry"/>
                </mxCell>
                <mxCell id="6" value="" style="endArrow=classic;html=1;" edge="1" parent="1">
                    <mxGeometry width="50" height="50" relative="1" as="geometry">
                        <mxPoint x="290" y="165" as="sourcePoint"/>
                        <mxPoint x="290" y="225" as="targetPoint"/>
                    </mxGeometry>
                </mxCell>
                <mxCell id="7" value="" style="endArrow=classic;html=1;" edge="1" parent="1">
                    <mxGeometry width="50" height="50" relative="1" as="geometry">
                        <mxPoint x="290" y="245" as="sourcePoint"/>
                        <mxPoint x="290" y="305" as="targetPoint"/>
                    </mxGeometry>
                </mxCell>
                <mxCell id="8" value="" style="endArrow=classic;html=1;" edge="1" parent="1">
                    <mxGeometry width="50" height="50" relative="1" as="geometry">
                        <mxPoint x="370" y="305" as="sourcePoint"/>
                        <mxPoint x="370" y="245" as="targetPoint"/>
                    </mxGeometry>
                </mxCell>
                <mxCell id="9" value="" style="endArrow=classic;html=1;" edge="1" parent="1">
                    <mxGeometry width="50" height="50" relative="1" as="geometry">
                        <mxPoint x="370" y="225" as="sourcePoint"/>
                        <mxPoint x="370" y="165" as="targetPoint"/>
                    </mxGeometry>
                </mxCell>
                <mxCell id="10" value="env['warden'] = proxy instance" style="text;html=1;strokeColor=none;fillColor=none;align=center;verticalAlign=middle;whiteSpace=wrap;rounded=0;" vertex="1" parent="1">
                    <mxGeometry x="100" y="175" width="190" height="30" as="geometry"/>
                </mxCell>
                <mxCell id="11" value="env['warden'].authenticate!(:user)" style="text;html=1;strokeColor=none;fillColor=none;align=center;verticalAlign=middle;whiteSpace=wrap;rounded=0;" vertex="1" parent="1">
                    <mxGeometry x="30" y="300" width="190" height="30" as="geometry"/>
                </mxCell>
                <mxCell id="12" value="failure_app.call if fail?" style="text;html=1;strokeColor=none;fillColor=none;align=center;verticalAlign=middle;whiteSpace=wrap;rounded=0;" vertex="1" parent="1">
                    <mxGeometry x="440" y="140" width="140" height="30" as="geometry"/>
                </mxCell>
                <mxCell id="13" value="env" style="text;html=1;strokeColor=none;fillColor=none;align=center;verticalAlign=middle;whiteSpace=wrap;rounded=0;" vertex="1" parent="1">
                    <mxGeometry x="240" y="265" width="50" height="20" as="geometry"/>
                </mxCell>
                <mxCell id="15" value="env" style="text;html=1;strokeColor=none;fillColor=none;align=center;verticalAlign=middle;whiteSpace=wrap;rounded=0;" vertex="1" parent="1">
                    <mxGeometry x="370" y="265" width="50" height="20" as="geometry"/>
                </mxCell>
                <mxCell id="16" value="env" style="text;html=1;strokeColor=none;fillColor=none;align=center;verticalAlign=middle;whiteSpace=wrap;rounded=0;" vertex="1" parent="1">
                    <mxGeometry x="370" y="185" width="50" height="20" as="geometry"/>
                </mxCell>
                <mxCell id="17" value="env['warden'].authenticate!(:token)" style="text;html=1;strokeColor=none;fillColor=none;align=center;verticalAlign=middle;whiteSpace=wrap;rounded=0;" vertex="1" parent="1">
                    <mxGeometry x="30" y="220" width="190" height="30" as="geometry"/>
                </mxCell>
            </root>
        </mxGraphModel>
    </diagram>
</mxfile>